<svg xmlns="http://www.w3.org/2000/svg" viewBox="0 0 50.78 66.92" width="20" height="20" fill="#26d4b9">
	<path d="M16.26,64.58A45.45,45.45,0,0,1,5.5,59.75a15.54,15.54,0,0,1-4.25-3.87c-1.79-2.49-1.54-4.94.9-6.8a24,24,0,0,1,4.47-2.53,51.88,51.88,0,0,1,9.81-3.65,12,12,0,0,1,6.77,0,11.8,11.8,0,0,1,5.1,3.71A52.37,52.37,0,0,1,34,55.13a27.27,27.27,0,0,1,2,4,9.69,9.69,0,0,1,.53,3.38,3.78,3.78,0,0,1-2.26,3.25,11.39,11.39,0,0,1-5.13,1.15,35.7,35.7,0,0,1-11.94-2Z"/>

	<path d="M14.91,14.76a19.42,19.42,0,0,1,3.46-6.5A7.4,7.4,0,0,1,21.24,6a3.59,3.59,0,0,1,4.44,1.15,9.78,9.78,0,0,1,1.88,4.89,32.43,32.43,0,0,1,0,8.41c-.26,2.49-.71,5-1.2,7.43a9.16,9.16,0,0,1-1.14,2.75,4.86,4.86,0,0,1-7.87.93,10.11,10.11,0,0,1-2.59-4.7A20.53,20.53,0,0,1,14.91,14.76Z"/>

	<path d="M46.4,25a20.59,20.59,0,0,1-8.94,11.2,6.89,6.89,0,0,1-5,1,4.9,4.9,0,0,1-3.78-5.69A18.43,18.43,0,0,1,31,25.2a51.57,51.57,0,0,1,6.2-9.3,11.19,11.19,0,0,1,4.22-3.14,3.83,3.83,0,0,1,5.38,2.37,7.08,7.08,0,0,1,.33,1.11A14,14,0,0,1,47.1,22C46.91,23,46.63,24,46.4,25Z"/>

	<path d="M50.34,43.7a19.51,19.51,0,0,1-5.69,7.91l-.57.48c-1.68,1.57-3.35,1.94-5.89.42a8.71,8.71,0,0,1-4.11-5.37,3.2,3.2,0,0,1,1.51-3.92A29.23,29.23,0,0,1,46.75,39a5,5,0,0,1,2.4.19c1.41.53,1.9,1.91,1.48,3.66A9.43,9.43,0,0,1,50.34,43.7Z"/>

	<path d="M.62,27.34c.21-.45.39-.92.63-1.35a2.66,2.66,0,0,1,4.24-.94,19.73,19.73,0,0,1,3.12,3.27,29.61,29.61,0,0,1,4.16,7.24A3.31,3.31,0,0,1,11.52,40a8.6,8.6,0,0,1-8.45,1.16,3.34,3.34,0,0,1-2-2.18A21.69,21.69,0,0,1,.38,28.34c.07-.33.21-.65.31-1Z"/>

	<path d="M8.66,18.1C8.1,19.74,7.55,21.36,7,23c-.28.83-.85,1-1.49.38a1.8,1.8,0,0,1-.36-2.6A8.35,8.35,0,0,1,8.66,18.1Z"/>

	<path d="M28.06,0c-.5,1.41-1,2.79-1.48,4.17a9,9,0,0,1-.33,1,.7.7,0,0,1-1.12.32,1.87,1.87,0,0,1-.68-2.69A8.08,8.08,0,0,1,28.06,0Z"/>

	<path d="M49.34,31.28a8.23,8.23,0,0,1,1.33,4.6,1.93,1.93,0,0,1-2.17,1.66c-.57-.08-.83-.47-.64-1.09s.56-1.48.78-2.24C48.9,33.3,49.08,32.37,49.34,31.28Z"/>

	<path d="M44.52,5.45a8.25,8.25,0,0,1,1.23,4.17,1.88,1.88,0,0,1-2.11,1.87c-.58,0-.8-.34-.78-.88a.76.76,0,0,1,.06-.26C43.45,8.7,44,7.06,44.52,5.45Z"/>
</svg>